<?xml version="1.0" standalone="no"?>
<!DOCTYPE svg PUBLIC "-//W3C//DTD SVG 20010904//EN"
 "http://www.w3.org/TR/2001/REC-SVG-20010904/DTD/svg10.dtd">
<svg version="1.0" xmlns="http://www.w3.org/2000/svg"
 width="180.000000pt" height="180.000000pt" viewBox="0 0 180.000000 180.000000"
 preserveAspectRatio="xMidYMid meet">
<metadata>
Created by potrace 1.14, written by Peter Selinger 2001-2017
</metadata>
<g transform="translate(0.000000,180.000000) scale(0.100000,-0.100000)"
fill="#000000" stroke="none">
<path d="M862 1743 c-58 -31 -100 -79 -112 -128 -6 -22 -19 -69 -30 -105 -11
-36 -20 -75 -20 -88 0 -16 -43 -65 -146 -167 -80 -80 -147 -155 -149 -167 -3
-11 -6 -21 -7 -22 -2 -1 -23 -11 -48 -21 -52 -22 -154 -80 -183 -104 -54 -44
-110 -112 -135 -161 -25 -51 -27 -64 -27 -180 0 -116 2 -129 29 -183 51 -106
181 -208 351 -275 82 -33 292 -85 306 -76 4 2 10 1 13 -4 3 -5 90 -7 193 -6
206 3 201 3 258 15 22 4 55 10 72 14 94 16 344 116 363 144 3 4 13 12 23 18
42 22 127 118 153 171 26 52 29 68 30 172 1 63 -1 119 -4 125 -3 5 -7 17 -7
26 -4 54 -116 183 -205 234 l-51 30 6 70 c12 153 17 181 35 200 73 81 65 199
-16 254 -27 19 -49 25 -95 25 -58 0 -59 0 -65 32 -7 41 -55 89 -101 105 -47
15 -130 5 -165 -21 l-27 -20 -16 33 c-37 79 -137 106 -223 60z"/>
</g>
</svg>
